<?xml version="1.0" encoding="UTF-8" standalone="no"?>
<svg
   xmlns:dc="http://purl.org/dc/elements/1.1/"
   xmlns:cc="http://creativecommons.org/ns#"
   xmlns:rdf="http://www.w3.org/1999/02/22-rdf-syntax-ns#"
   xmlns:svg="http://www.w3.org/2000/svg"
   xmlns="http://www.w3.org/2000/svg"
   xmlns:sodipodi="http://sodipodi.sourceforge.net/DTD/sodipodi-0.dtd"
   xmlns:inkscape="http://www.inkscape.org/namespaces/inkscape"
   version="1.1"
   width="64"
   height="64"
   viewBox="0 0 64 64"
   id="svg8"
   sodipodi:docname="set.svg"
   inkscape:version="1.0.2-2 (e86c870879, 2021-01-15)">
  <metadata
     id="metadata14">
    <rdf:RDF>
      <cc:Work
         rdf:about="">
        <dc:format>image/svg+xml</dc:format>
        <dc:type
           rdf:resource="http://purl.org/dc/dcmitype/StillImage" />
      </cc:Work>
    </rdf:RDF>
  </metadata>
  <defs
     id="defs12" />
  <sodipodi:namedview
     pagecolor="#ffffff"
     bordercolor="#666666"
     borderopacity="1"
     objecttolerance="10"
     gridtolerance="10"
     guidetolerance="10"
     inkscape:pageopacity="0"
     inkscape:pageshadow="2"
     inkscape:window-width="2560"
     inkscape:window-height="1377"
     id="namedview10"
     showgrid="false"
     inkscape:zoom="9.8332037"
     inkscape:cx="34.02519"
     inkscape:cy="34.382511"
     inkscape:window-x="1912"
     inkscape:window-y="-8"
     inkscape:window-maximized="1"
     inkscape:current-layer="svg8"
     inkscape:document-rotation="0" />
  <title
     id="title2">set</title>
  <path
     d="m 18.56166,29.988993 c -0.186778,0 -0.370497,-0.05511 -0.526657,-0.162284 -0.220461,-0.150038 -0.367436,-0.385809 -0.404179,-0.649137 -0.06736,-0.486853 -0.244958,-0.915529 -0.52972,-1.282964 -0.514411,-0.655261 -1.286026,-1.031883 -2.121942,-1.031883 -0.603207,0 -1.172733,0.195966 -1.647337,0.569527 -0.54503,0.425612 -0.90328,1.04413 -1.001263,1.742257 -0.03674,0.26333 -0.18678,0.4991 -0.410303,0.649137 -0.223523,0.146974 -0.496039,0.195966 -0.756306,0.128602 C 9.6850242,29.569503 8.2734582,28.978544 6.975185,28.185493 6.7485998,28.047706 6.5924395,27.82112 6.5403861,27.560853 c -0.048992,-0.260267 0.012255,-0.52972 0.17147,-0.740996 0.6675081,-0.894093 0.7164998,-2.11888 0.1194168,-3.049716 -0.4960385,-0.774679 -1.3442028,-1.240097 -2.2658545,-1.240097 -0.4991003,0 -0.9890146,0.140851 -1.4146278,0.404179 -0.048992,0.04287 -0.085736,0.07349 -0.1255398,0.1041 C 2.8109125,23.197552 2.5383976,23.255729 2.2750685,23.200615 2.0148015,23.145499 1.788216,22.983215 1.6534896,22.753567 0.92780386,21.504285 0.37971212,20.153958 0.02758612,18.73933 -0.03671514,18.476002 0.01227629,18.200424 0.16537456,17.976901 0.3184728,17.753378 0.56036805,17.609465 0.82982102,17.578845 1.2125666,17.532915 1.5677546,17.416561 1.886199,17.226719 2.5047159,16.862345 2.9425769,16.27751 3.120171,15.582444 3.297765,14.887378 3.1936581,14.164754 2.8292842,13.549299 2.4097949,12.841984 1.6932952,12.373504 0.85737866,12.266335 0.58792574,12.232653 0.34909246,12.082617 0.19905617,11.859093 0.04901988,11.63557 2.8438855e-5,11.356931 0.06739167,11.096664 0.41339374,9.7677709 0.93086584,8.4970552 1.6075601,7.3212602 1.7392246,7.0916129 1.9596861,6.9293285 2.2199532,6.8711513 2.4771583,6.8129737 2.749673,6.8681063 2.9640108,7.0211878 3.2487735,7.2202153 3.5457842,7.361066 3.8458566,7.437615 4.0663181,7.495793 4.2929035,7.523351 4.5164269,7.523351 5.741213,7.523351 6.8098388,6.6935584 7.1129735,5.5055154 7.3150633,4.7216516 7.1435924,3.8918587 6.641431,3.2274123 6.4822085,3.0161365 6.4179075,2.7466836 6.4668986,2.4894785 6.5158902,2.2292114 6.6720503,2.002626 6.8955739,1.8617755 8.203033,1.0503546 9.6268466,0.4440854 11.124148,0.05827772 c 0.260267,-0.06736323 0.535843,-0.01837179 0.759367,0.12860256 0.223524,0.15003634 0.370498,0.38886964 0.407242,0.65219871 0.09798,0.71343801 0.46848,1.34420291 1.041068,1.77900211 0.471542,0.3551879 1.02882,0.5419679 1.613655,0.5419679 0.854289,0 1.63509,-0.3888696 2.1495,-1.0716879 0.272514,-0.361312 0.440923,-0.7869253 0.505225,-1.2707159 0.03368,-0.26639099 0.180656,-0.50522431 0.404179,-0.65526065 0.223523,-0.1500363 0.4991,-0.19902776 0.759367,-0.13472649 1.436062,0.36131197 2.807822,0.92471365 4.072414,1.67489524 0.232709,0.1377888 0.394992,0.3704978 0.443984,0.6368888 0.04899,0.266391 -0.01838,0.541968 -0.186779,0.7532437 -0.765492,0.976767 -0.771617,2.3362798 -0.0123,3.3069231 0.51441,0.6583224 1.286025,1.0349443 2.121942,1.0349443 0.594021,0 1.154361,-0.189842 1.628965,-0.5511538 0.04593,-0.039807 0.09798,-0.07655 0.14697,-0.1041062 0.447046,-0.2633293 1.019635,-0.1132923 1.282964,0.3276303 0.737932,1.2400958 1.298272,2.5781748 1.665708,3.9836175 0.06737,0.263329 0.02144,0.541968 -0.13167,0.765491 -0.153098,0.223524 -0.394994,0.37356 -0.661384,0.404179 -1.224788,0.153099 -2.183182,1.108432 -2.330157,2.324033 -0.0888,0.713437 0.107176,1.41769 0.548093,1.984153 0.437861,0.557278 1.062501,0.915528 1.763692,1.007387 0.03368,0.003 0.06737,0.0062 0.09798,0.0092 0.260267,0.04287 0.486851,0.192903 0.630765,0.410303 0.14391,0.220462 0.189842,0.489915 0.128595,0.744057 -0.373559,1.497302 -0.96758,2.92724 -1.769815,4.250009 -0.14085,0.232709 -0.376622,0.394993 -0.646075,0.440923 -0.269454,0.04593 -0.54503,-0.02755 -0.756305,-0.202089 -0.480729,-0.394994 -1.09006,-0.615456 -1.7147,-0.615456 -0.600146,0 -1.169672,0.195966 -1.644276,0.566464 -0.566464,0.440923 -0.927776,1.077811 -1.01351,1.79125 -0.0888,0.704252 0.10104,1.399319 0.532782,1.959657 0.02755,0.03062 0.05511,0.06736 0.07654,0.09798 0.14391,0.214339 0.192905,0.480729 0.13167,0.734873 -0.05818,0.254143 -0.220461,0.471543 -0.440923,0.600145 -0.774678,0.450109 -2.94561,1.353389 -3.943812,1.598345 -0.07349,0.01837 -0.14697,0.02756 -0.223523,0.02756 z M 8.748063,27.02501 c 0.6399506,0.333754 1.304397,0.615454 1.993339,0.84204 0.297011,-0.753243 0.786925,-1.414629 1.433,-1.916791 0.808359,-0.633826 1.779002,-0.96758 2.80476,-0.96758 1.417689,0 2.731272,0.639951 3.603934,1.757567 0.263328,0.336817 0.474604,0.710376 0.630763,1.111494 0.545031,-0.199028 1.181919,-0.459295 1.708577,-0.695066 -0.333753,-0.74712 -0.462356,-1.576913 -0.35825,-2.418953 0.150036,-1.209477 0.762429,-2.290351 1.723886,-3.043594 0.80836,-0.630765 1.779003,-0.964519 2.801699,-0.964519 0.68588,0 1.362575,0.156161 1.974967,0.447048 0.32763,-0.63689 0.603207,-1.301336 0.823669,-1.981092 -0.780801,-0.287825 -1.478928,-0.79305 -2.014773,-1.475868 -0.750182,-0.961458 -1.083936,-2.158687 -0.933899,-3.371225 0.208214,-1.702452 1.347264,-3.104833 2.89968,-3.695792 -0.202089,-0.603207 -0.447047,-1.1880429 -0.734871,-1.7545064 -0.590959,0.2725149 -1.233972,0.4133652 -1.898418,0.4133652 -1.41769,0 -2.731273,-0.6399506 -3.600872,-1.757568 C 20.542752,6.1944572 20.359035,4.3878972 21.051039,2.8661002 20.457017,2.5690896 19.844624,2.3180084 19.210797,2.1097948 c -0.150036,0.3980554 -0.352125,0.7716153 -0.609331,1.1114936 -0.869597,1.154361 -2.201552,1.8188075 -3.649862,1.8188075 -0.9982,0 -1.94741,-0.3184443 -2.746583,-0.9216516 C 11.519141,3.6009721 11.007793,2.9212156 10.701597,2.1404143 10.003468,2.3731238 9.329836,2.6609486 8.6806998,3.0038887 9.097127,3.9347263 9.1920476,4.9727325 8.934843,5.9709337 8.4204327,7.9918307 6.6016251,9.4033971 4.5164269,9.4033971 c 0,0 0,0 0,0 -0.3827456,0 -0.765491,-0.048992 -1.1390509,-0.1439133 C 3.1844723,9.2104934 2.9915684,9.146192 2.8047886,9.0696426 2.5537074,9.5840529 2.3363078,10.116835 2.1556519,10.664927 c 0.9553331,0.361312 1.7636918,1.031883 2.2903499,1.925976 0.6215789,1.047193 0.7961112,2.278103 0.4929765,3.456959 -0.3031347,1.181919 -1.0471924,2.173996 -2.0974462,2.795576 -0.2357713,0.13779 -0.4807285,0.254143 -0.7348716,0.349063 0.1990278,0.618517 0.4439849,1.218663 0.7287476,1.797374 0.5480918,-0.226586 1.1329271,-0.339878 1.7269483,-0.339878 1.5677263,0 3.0068498,0.786926 3.8519521,2.106632 0.8236688,1.282965 0.9277755,2.89662 0.3337545,4.268381 z"
     id="path4"
     style="fill:#ffffff;stroke-width:0.0306197" />
  <path
     d="m 15.040401,21.057239 c -3.368162,0 -6.1116822,-2.74046 -6.1116822,-6.111684 0,-3.368162 2.7404592,-6.1116834 6.1116822,-6.1116834 3.368162,0 6.111683,2.7404594 6.111683,6.1116834 0,3.371224 -2.743521,6.111684 -6.111683,6.111684 z m 0,-10.340259 c -2.333217,0 -4.231636,1.898419 -4.231636,4.231637 0,2.333217 1.898419,4.231636 4.231636,4.231636 2.333218,0 4.231636,-1.898419 4.231636,-4.231636 -0.003,-2.333218 -1.898418,-4.231637 -4.231636,-4.231637 z"
     id="path6"
     style="fill:#ffffff;stroke-width:0.0306197" />
  <path
     d="M 14.636222,1.003753e-4 V 9.305414 Z"
     id="path8"
     style="fill:#ffffff;stroke-width:0.0306197" />
  <path
     d="m 14.636222,20.613253 v 9.305314 z"
     id="path10"
     style="fill:#ffffff;stroke-width:0.0306197" />
</svg>
